<svg xmlns="http://www.w3.org/2000/svg" xmlns:xlink="http://www.w3.org/1999/xlink" width="400px" height="300px" viewBox="0 0 400 300" version="1.1">
<g id="surface1">
<path style=" stroke:none;fill-rule:nonzero;fill:#ffffff;fill-opacity:1;" d="M 221.1875 104.6875 C 222.136719 105.445312 223.074219 106.214844 224 107 C 224.363281 107.308594 224.726562 107.613281 225.101562 107.929688 C 232.003906 114.285156 235.484375 123.265625 236 132.5 C 236.199219 143.199219 232.398438 152.292969 224.992188 160.054688 C 217.503906 167.199219 208.441406 169.890625 198.296875 169.796875 C 188.800781 169.484375 180.664062 165.582031 173.90625 158.921875 C 166.980469 151.46875 163.96875 142.519531 164 132.5 C 164.566406 121.929688 169.007812 113.574219 176.652344 106.421875 C 189.195312 95.730469 207.847656 94.96875 221.1875 104.6875 Z M 198.5 102 C 198.488281 102.539062 198.480469 103.074219 198.46875 103.628906 C 198.433594 105.621094 198.386719 107.613281 198.339844 109.609375 C 198.320312 110.472656 198.304688 111.332031 198.289062 112.195312 C 198.265625 113.4375 198.238281 114.675781 198.207031 115.914062 C 198.199219 116.496094 198.199219 116.496094 198.191406 117.085938 C 198.136719 118.976562 198.074219 119.890625 197 121.5 C 195.769531 121.667969 195.769531 121.667969 194.3125 121.6875 C 192.027344 121.773438 192.027344 121.773438 190.3125 123.21875 C 190.042969 123.640625 189.777344 124.0625 189.5 124.5 C 187.417969 125.738281 185.816406 125.578125 183.5 125 C 181.824219 123.90625 181.136719 123.410156 180.5 121.5 C 180.316406 119.011719 180.417969 117.476562 182 115.5 C 183.484375 114.34375 185.125 114.265625 186.984375 114.304688 C 188.808594 114.65625 189.71875 115.6875 191 117 C 191.246094 117.496094 191.246094 117.496094 191.5 118 C 192.324219 118 193.148438 118 194 118 C 194 112.886719 194 107.769531 194 102.5 C 183.960938 105.367188 177.046875 109.675781 171.78125 118.734375 C 167.757812 126.296875 166.984375 134.75 169.1875 142.992188 C 171.453125 150.296875 176.375 157.046875 183 161 C 183.742188 161.246094 183.742188 161.246094 184.5 161.5 C 184.574219 159.300781 184.617188 157.105469 184.65625 154.90625 C 184.6875 153.972656 184.6875 153.972656 184.71875 153.019531 C 184.925781 149.402344 184.925781 149.402344 183.363281 146.320312 C 181.808594 145.386719 180.78125 145.390625 178.996094 145.5 C 177.363281 145.5 176.332031 144.898438 175 144 C 173.917969 142.8125 173.523438 142.015625 173.453125 140.40625 C 173.582031 138.464844 173.757812 137.3125 174.96875 135.75 C 176.800781 134.417969 178.144531 134.304688 180.367188 134.320312 C 182.164062 134.605469 182.933594 135.601562 184 137 C 184.605469 138.210938 184.445312 138.761719 184.3125 140.09375 C 184.253906 141.292969 184.253906 141.292969 184.5 142.5 C 185.269531 143.21875 185.269531 143.21875 186.234375 143.839844 C 188.207031 145.691406 188.363281 147.578125 188.453125 150.171875 C 188.484375 151.769531 188.480469 153.367188 188.46875 154.96875 C 188.476562 155.796875 188.484375 156.625 188.492188 157.449219 C 188.511719 159.46875 188.511719 161.484375 188.5 163.5 C 192.167969 165.089844 192.167969 165.089844 196.0625 165.507812 C 196.703125 165.507812 197.34375 165.503906 198 165.5 C 198.070312 161.695312 198.121094 157.894531 198.15625 154.089844 C 198.171875 152.324219 198.191406 150.558594 198.226562 148.792969 C 198.265625 146.761719 198.28125 144.730469 198.292969 142.695312 C 198.308594 142.066406 198.324219 141.433594 198.339844 140.78125 C 198.453125 137.757812 198.453125 137.757812 197.328125 135.066406 C 196.4375 134.296875 196.4375 134.296875 195 133.5 C 194.234375 131.96875 194.386719 130.691406 194.5 129 C 195.15625 127.476562 195.824219 126.65625 197.0625 125.5625 C 199.128906 124.753906 200.875 124.910156 203 125.5 C 204.496094 126.621094 204.90625 127.222656 205.5 129 C 205.832031 131.941406 205.832031 131.941406 204.976562 133.375 C 204.082031 134.46875 203.269531 135.363281 202 136 C 202 145.734375 202 155.46875 202 165.5 C 204.597656 165.5 206.078125 165.464844 208.4375 164.78125 C 208.910156 164.648438 209.382812 164.515625 209.871094 164.375 C 210.972656 164.101562 210.972656 164.101562 211.5 163.5 C 211.53125 162.75 211.527344 161.996094 211.507812 161.242188 C 211.5 160.761719 211.488281 160.28125 211.480469 159.785156 C 211.46875 159.261719 211.457031 158.734375 211.445312 158.195312 C 211.433594 156.5 211.429688 154.804688 211.421875 153.109375 C 211.410156 151.941406 211.390625 150.773438 211.359375 149.605469 C 211.109375 139.289062 211.109375 139.289062 213.367188 136.453125 C 214.394531 135.382812 215.488281 134.5 216.683594 133.625 C 218.121094 132.621094 218.121094 132.621094 218.320312 131.070312 C 218.265625 129.789062 218.265625 129.789062 218.085938 128.5625 C 218 127.5 218 127.5 218.875 126 C 220.734375 124.347656 221.402344 123.992188 223.96875 124.03125 C 226.117188 124.359375 227.132812 125.304688 228.5 127 C 229.386719 128.773438 229.007812 130.632812 228.5 132.5 C 226.972656 134.421875 226.972656 134.421875 225.5 135 C 224.367188 134.972656 224.367188 134.972656 223.125 134.84375 C 220.796875 134.761719 219.632812 135.324219 217.855469 136.820312 C 215.003906 139.816406 214.992188 142.613281 215.023438 146.625 C 215.0625 148.105469 215.125 149.582031 215.1875 151.0625 C 215.210938 152.074219 215.234375 153.089844 215.257812 154.101562 C 215.3125 156.570312 215.398438 159.035156 215.5 161.5 C 218.625 160.324219 220.621094 158.300781 223 156 C 223.316406 155.703125 223.632812 155.402344 223.960938 155.09375 C 229.480469 149.414062 231.808594 141.460938 232.1875 133.71875 C 231.875 126.316406 229.507812 119.8125 225 114 C 224.726562 113.644531 224.453125 113.289062 224.171875 112.921875 C 221.542969 109.703125 218.253906 107.277344 214.5 105.5 C 213.957031 109.625 213.957031 109.625 215.148438 113.363281 C 215.421875 113.542969 215.691406 113.722656 215.96875 113.90625 C 217.5 115 217.5 115 217.882812 116.035156 C 218.203125 118.144531 218.117188 119.253906 217.1875 121.21875 C 215.925781 122.582031 215.308594 123.121094 213.5 123.5 C 210.859375 123.40625 209.375 122.875 207.5 121 C 206.742188 118.726562 206.640625 116.808594 207.625 114.59375 C 208.5 113.5 208.5 113.5 210.5 112.5 C 210.5 109.695312 210.5 106.890625 210.5 104 C 207.171875 102.65625 204.25 101.972656 200.640625 101.992188 C 200.238281 101.992188 199.835938 101.992188 199.421875 101.996094 C 199.117188 101.996094 198.8125 102 198.5 102 Z M 211.5 116 C 211.171875 116.328125 210.839844 116.660156 210.5 117 C 210.660156 118.300781 210.660156 118.300781 211 119.5 C 211.917969 119.886719 211.917969 119.886719 213 120 C 213.957031 119.457031 213.957031 119.457031 214.5 118.5 C 214.386719 117.417969 214.386719 117.417969 214 116.5 C 212.800781 116.160156 212.800781 116.160156 211.5 116 Z M 185 118 C 184.671875 118.328125 184.339844 118.660156 184 119 C 184.160156 120.300781 184.160156 120.300781 184.5 121.5 C 184.996094 121.664062 185.488281 121.828125 186 122 C 186.660156 121.339844 187.320312 120.679688 188 120 C 187.671875 119.339844 187.339844 118.679688 187 118 C 186.339844 118 185.679688 118 185 118 Z M 222.09375 128.09375 C 221.375 128.976562 221.375 128.976562 221.65625 130.09375 C 221.769531 130.394531 221.882812 130.691406 222 131 C 223.199219 131.339844 223.199219 131.339844 224.5 131.5 C 224.828125 131.171875 225.160156 130.839844 225.5 130.5 C 225.339844 129.199219 225.339844 129.199219 225 128 C 223.496094 127.421875 223.496094 127.421875 222.09375 128.09375 Z M 199 128.5 C 198.671875 128.828125 198.339844 129.160156 198 129.5 C 198.160156 130.800781 198.160156 130.800781 198.5 132 C 199.417969 132.386719 199.417969 132.386719 200.5 132.5 C 201.457031 131.957031 201.457031 131.957031 202 131 C 201.886719 129.917969 201.886719 129.917969 201.5 129 C 200.300781 128.660156 200.300781 128.660156 199 128.5 Z M 178 138 C 177.671875 138.824219 177.339844 139.648438 177 140.5 C 177.496094 140.996094 177.988281 141.488281 178.5 142 C 179.324219 141.671875 180.148438 141.339844 181 141 C 180.835938 140.175781 180.671875 139.351562 180.5 138.5 C 179.675781 138.335938 178.851562 138.171875 178 138 Z M 178 138 "/>
<path style=" stroke:none;fill-rule:nonzero;fill:#ffffff;fill-opacity:1;" d="M 200 177.75 C 200.527344 177.742188 201.054688 177.734375 201.597656 177.726562 C 204.835938 177.742188 206.878906 178.058594 209.5 180 C 211.53125 182.710938 211.570312 185.230469 211.546875 188.523438 C 211.546875 188.910156 211.546875 189.292969 211.546875 189.691406 C 211.542969 190.917969 211.539062 192.148438 211.53125 193.375 C 211.527344 194.207031 211.527344 195.042969 211.523438 195.875 C 211.519531 197.917969 211.511719 199.960938 211.5 202 C 210.511719 202 209.519531 202 208.5 202 C 208.5 198.371094 208.5 194.738281 208.5 191 C 202.890625 191 197.28125 191 191.5 191 C 191.5 194.628906 191.5 198.261719 191.5 202 C 190.511719 202 189.519531 202 188.5 202 C 188.449219 199.511719 188.414062 197.019531 188.390625 194.53125 C 188.378906 193.683594 188.367188 192.835938 188.347656 191.992188 C 188.324219 190.769531 188.3125 189.550781 188.304688 188.328125 C 188.292969 187.953125 188.285156 187.582031 188.273438 187.199219 C 188.273438 184.4375 188.933594 182.289062 190.5 180 C 193.433594 177.585938 196.3125 177.695312 200 177.75 Z M 192 183 C 191.316406 184.789062 191.316406 184.789062 191.5 188 C 197.109375 188 202.71875 188 208.5 188 C 208.589844 184.554688 208.589844 184.554688 207 182 C 205.214844 180.214844 202.476562 180.816406 200.0625 180.8125 C 199.511719 180.800781 198.960938 180.789062 198.390625 180.773438 C 197.863281 180.773438 197.332031 180.773438 196.785156 180.769531 C 196.054688 180.761719 196.054688 180.761719 195.3125 180.757812 C 193.628906 181.070312 193.050781 181.675781 192 183 Z M 192 183 "/>
<path style=" stroke:none;fill-rule:nonzero;fill:#ffffff;fill-opacity:1;" d="M 123.4375 177.84375 C 124.246094 177.832031 124.246094 177.832031 125.070312 177.820312 C 127.902344 177.816406 130.082031 177.839844 132.5 179.5 C 134.9375 182.132812 135.070312 184.234375 135.046875 187.695312 C 135.046875 188.101562 135.046875 188.511719 135.046875 188.929688 C 135.042969 190.234375 135.039062 191.539062 135.03125 192.84375 C 135.027344 193.726562 135.027344 194.613281 135.023438 195.496094 C 135.019531 197.664062 135.011719 199.832031 135 202 C 134.011719 202 133.019531 202 132 202 C 132 198.371094 132 194.738281 132 191 C 126.390625 191 120.78125 191 115 191 C 115 194.628906 115 198.261719 115 202 C 114.175781 202 113.351562 202 112.5 202 C 112.425781 199.285156 112.371094 196.574219 112.335938 193.859375 C 112.320312 192.9375 112.300781 192.015625 112.273438 191.09375 C 112.238281 189.765625 112.21875 188.4375 112.207031 187.109375 C 112.191406 186.699219 112.175781 186.289062 112.160156 185.871094 C 112.160156 183.128906 112.792969 181.707031 114.660156 179.703125 C 117.320312 177.480469 120.128906 177.832031 123.4375 177.84375 Z M 115.5 183 C 115.140625 184.152344 115.140625 184.152344 115.09375 185.34375 C 115.058594 185.738281 115.027344 186.132812 114.992188 186.539062 C 114.886719 187.503906 114.886719 187.503906 115.5 188 C 116.722656 188.042969 117.933594 188.058594 119.15625 188.046875 C 119.707031 188.046875 119.707031 188.046875 120.265625 188.046875 C 121.4375 188.042969 122.609375 188.039062 123.78125 188.03125 C 124.574219 188.027344 125.367188 188.027344 126.160156 188.023438 C 128.105469 188.019531 130.054688 188.011719 132 188 C 132.226562 185.691406 132.308594 184.035156 131.125 181.984375 C 128.636719 180.476562 126.324219 180.65625 123.46875 180.71875 C 122.925781 180.714844 122.378906 180.707031 121.820312 180.703125 C 118.167969 180.679688 118.167969 180.679688 115.5 183 Z M 115.5 183 "/>
<path style=" stroke:none;fill-rule:nonzero;fill:#ffffff;fill-opacity:1;" d="M 290.5 178 C 294 178 294 178 295.460938 179.285156 C 295.941406 179.867188 296.414062 180.460938 296.875 181.0625 C 297.128906 181.375 297.382812 181.691406 297.648438 182.015625 C 298.441406 183 299.222656 184 300 185 C 300.488281 185.621094 300.980469 186.242188 301.46875 186.867188 C 302.148438 187.730469 302.828125 188.597656 303.496094 189.46875 C 305.394531 191.9375 307.410156 194.148438 309.5 196.5 C 309.664062 190.394531 309.828125 184.289062 310 178 C 310.988281 178 311.980469 178 313 178 C 313 185.921875 313 193.839844 313 202 C 309.5 202 309.5 202 308.421875 201.09375 C 308.105469 200.660156 307.792969 200.226562 307.46875 199.78125 C 307.09375 199.28125 306.714844 198.785156 306.328125 198.269531 C 306.121094 197.988281 305.914062 197.710938 305.699219 197.421875 C 304.347656 195.640625 302.898438 193.9375 301.46875 192.21875 C 298.945312 189.171875 296.472656 186.089844 294 183 C 293.835938 189.269531 293.671875 195.539062 293.5 202 C 292.511719 202 291.519531 202 290.5 202 C 290.5 194.078125 290.5 186.160156 290.5 178 Z M 290.5 178 "/>
<path style=" stroke:none;fill-rule:nonzero;fill:#ffffff;fill-opacity:1;" d="M 276.40625 177.84375 C 276.945312 177.828125 277.488281 177.816406 278.042969 177.800781 C 281.113281 177.773438 283.136719 177.824219 285.5 180 C 288.113281 182.734375 287.839844 185.277344 287.816406 188.90625 C 287.8125 189.933594 287.835938 190.957031 287.859375 191.984375 C 287.867188 197.515625 287.867188 197.515625 286.105469 199.660156 C 283.261719 202.421875 280.328125 202.167969 276.5625 202.15625 C 276.023438 202.164062 275.484375 202.171875 274.929688 202.179688 C 272.097656 202.183594 269.917969 202.160156 267.5 200.5 C 264.53125 197.289062 264.894531 194.253906 264.875 190.09375 C 264.863281 189.503906 264.855469 188.917969 264.84375 188.3125 C 264.820312 182.878906 264.820312 182.878906 266.5 180.5 C 269.589844 177.644531 272.398438 177.878906 276.40625 177.84375 Z M 268.90625 181.859375 C 267.453125 184.484375 267.640625 187.050781 267.6875 190 C 267.679688 190.585938 267.667969 191.175781 267.65625 191.78125 C 267.671875 194.226562 267.710938 195.980469 268.910156 198.140625 C 271.328125 199.449219 273.542969 199.34375 276.25 199.28125 C 277.023438 199.289062 277.023438 199.289062 277.8125 199.296875 C 280.078125 199.277344 281.585938 199.234375 283.578125 198.109375 C 285.503906 195.792969 285.089844 192.902344 285.09375 190.03125 C 285.101562 189.359375 285.101562 189.359375 285.113281 188.675781 C 285.152344 185.457031 285.152344 185.457031 284 182.5 C 281.6875 180.382812 279.265625 180.742188 276.28125 180.75 C 275.761719 180.734375 275.246094 180.722656 274.710938 180.707031 C 272.453125 180.703125 270.914062 180.777344 268.90625 181.859375 Z M 268.90625 181.859375 "/>
<path style=" stroke:none;fill-rule:nonzero;fill:#ffffff;fill-opacity:1;" d="M 87 178 C 87.988281 178 88.980469 178 90 178 C 90 181.300781 90 184.601562 90 188 C 95.445312 188 100.890625 188 106.5 188 C 106.5 184.699219 106.5 181.398438 106.5 178 C 107.488281 178 108.480469 178 109.5 178 C 109.5 185.921875 109.5 193.839844 109.5 202 C 108.511719 202 107.519531 202 106.5 202 C 106.5 198.371094 106.5 194.738281 106.5 191 C 101.054688 191 95.609375 191 90 191 C 90 194.628906 90 198.261719 90 202 C 89.011719 202 88.019531 202 87 202 C 87 194.078125 87 186.160156 87 178 Z M 87 178 "/>
<path style=" stroke:none;fill-rule:nonzero;fill:#ffffff;fill-opacity:1;" d="M 163 178 C 163.988281 178 164.980469 178 166 178 C 166.164062 181.136719 166.328125 184.269531 166.5 187.5 C 168.707031 187.527344 170.917969 187.546875 173.125 187.5625 C 174.066406 187.574219 174.066406 187.574219 175.023438 187.585938 C 175.929688 187.59375 175.929688 187.59375 176.851562 187.597656 C 177.40625 187.601562 177.960938 187.609375 178.535156 187.613281 C 179.984375 187.5 180.800781 187.300781 182 186.5 C 182.761719 184.980469 182.6875 183.359375 182.78125 181.6875 C 182.8125 181.15625 182.8125 181.15625 182.847656 180.617188 C 182.898438 179.746094 182.949219 178.871094 183 178 C 183.988281 178 184.980469 178 186 178 C 186.039062 179.1875 186.070312 180.375 186.09375 181.5625 C 186.105469 181.894531 186.117188 182.226562 186.132812 182.570312 C 186.167969 184.957031 185.640625 186.433594 184.5 188.5 C 184.394531 190.0625 184.394531 190.0625 185.242188 191.5625 C 186.203125 193.707031 186.171875 195.65625 186.09375 197.96875 C 186.082031 198.554688 186.082031 198.554688 186.074219 199.148438 C 186.054688 200.101562 186.027344 201.050781 186 202 C 185.011719 202 184.019531 202 183 202 C 182.953125 201.113281 182.953125 201.113281 182.90625 200.210938 C 182.867188 199.433594 182.824219 198.652344 182.78125 197.875 C 182.761719 197.488281 182.742188 197.097656 182.722656 196.695312 C 182.699219 196.320312 182.679688 195.941406 182.65625 195.554688 C 182.628906 195.035156 182.628906 195.035156 182.601562 194.507812 C 182.507812 193.320312 182.507812 193.320312 182 191.5 C 176.71875 191.335938 171.441406 191.171875 166 191 C 166 194.628906 166 198.261719 166 202 C 165.011719 202 164.019531 202 163 202 C 163 194.078125 163 186.160156 163 178 Z M 163 178 "/>
<path style=" stroke:none;fill-rule:nonzero;fill:#ffffff;fill-opacity:1;" d="M 239.5 178 C 240.488281 178 241.480469 178 242.5 178 C 242.5 181.300781 242.5 184.601562 242.5 188 C 247.945312 187.835938 253.390625 187.671875 259 187.5 C 259.164062 184.363281 259.328125 181.230469 259.5 178 C 260.324219 178 261.148438 178 262 178 C 262 185.921875 262 193.839844 262 202 C 261.175781 202 260.351562 202 259.5 202 C 259.5 198.371094 259.5 194.738281 259.5 191 C 253.890625 191 248.28125 191 242.5 191 C 242.5 194.628906 242.5 198.261719 242.5 202 C 241.511719 202 240.519531 202 239.5 202 C 239.5 194.078125 239.5 186.160156 239.5 178 Z M 239.5 178 "/>
<path style=" stroke:none;fill-rule:nonzero;fill:#ffffff;fill-opacity:1;" d="M 147.171875 177.804688 C 147.554688 177.808594 147.9375 177.808594 148.332031 177.8125 C 149.542969 177.824219 150.757812 177.847656 151.96875 177.875 C 152.796875 177.886719 153.621094 177.894531 154.449219 177.902344 C 156.46875 177.925781 158.484375 177.957031 160.5 178 C 160.5 178.988281 160.5 179.980469 160.5 181 C 159.976562 181.007812 159.457031 181.015625 158.917969 181.023438 C 156.980469 181.050781 155.042969 181.089844 153.105469 181.132812 C 152.265625 181.148438 151.429688 181.160156 150.589844 181.171875 C 149.382812 181.191406 148.179688 181.214844 146.976562 181.242188 C 146.597656 181.246094 146.222656 181.25 145.839844 181.253906 C 143.8125 181.300781 143.8125 181.300781 142.03125 182.171875 C 140.527344 184.511719 140.890625 187.261719 140.875 189.9375 C 140.863281 190.433594 140.855469 190.929688 140.84375 191.445312 C 140.804688 194.972656 140.804688 194.972656 142.5 198 C 143.503906 199.003906 145.5 198.628906 146.875 198.65625 C 147.265625 198.667969 147.652344 198.679688 148.050781 198.691406 C 149.296875 198.722656 150.539062 198.75 151.78125 198.78125 C 152.621094 198.804688 153.464844 198.824219 154.304688 198.847656 C 156.367188 198.898438 158.433594 198.949219 160.5 199 C 160.5 199.988281 160.5 200.980469 160.5 202 C 158.070312 202.050781 155.644531 202.085938 153.214844 202.109375 C 152.390625 202.121094 151.566406 202.132812 150.742188 202.152344 C 149.550781 202.175781 148.359375 202.1875 147.171875 202.195312 C 146.804688 202.207031 146.441406 202.214844 146.066406 202.226562 C 143.328125 202.226562 141.730469 201.613281 139.5 200 C 137.914062 198.078125 137.808594 196.511719 137.800781 194.0625 C 137.800781 193.40625 137.796875 192.746094 137.796875 192.070312 C 137.796875 191.730469 137.800781 191.390625 137.804688 191.039062 C 137.8125 190.003906 137.804688 188.964844 137.796875 187.929688 C 137.796875 187.273438 137.796875 186.613281 137.800781 185.9375 C 137.800781 185.339844 137.804688 184.738281 137.804688 184.121094 C 138.027344 182.28125 138.324219 181.429688 139.5 180 C 142.109375 178.113281 144 177.714844 147.171875 177.804688 Z M 147.171875 177.804688 "/>
<path style=" stroke:none;fill-rule:nonzero;fill:#ffffff;fill-opacity:1;" d="M 214 178 C 221.589844 178 229.179688 178 237 178 C 237 178.824219 237 179.648438 237 180.5 C 236.835938 180.664062 236.671875 180.828125 236.5 181 C 233.363281 181 230.230469 181 227 181 C 227 187.929688 227 194.859375 227 202 C 226.011719 202 225.019531 202 224 202 C 224 195.070312 224 188.140625 224 181 C 220.863281 181 217.730469 181 214.5 181 C 214.335938 180.835938 214.171875 180.671875 214 180.5 C 214 179.675781 214 178.851562 214 178 Z M 214 178 "/>
</g>
</svg>